# xmcd
#
# Track frame offsets: 
#        150
#        24057
#        40339
#        46187
#        55690
#        68153
#        81119
#        93382
#        107527
#        117760
#        127038
#        140963
#        156389
#        164224
#        167265
#        176379
#        188016
#        203612
#        211860
#        226923
#        247285
#        268139
#        293019
#
# Disc length: 4105 seconds
#
# Revision: 0
# Processed by: cddbd v1.5.2PL0 Copyright (c) Steve Scherf et al.
# Submitted via: ExactAudioCopyFreeDBPlugin 1.0
#
DISCID=40100717
DTITLE=Maria Bethânia - Abraçar e agradecer
DYEAR=2016
DGENRE=Brasil
TTITLE0=Até o fim - O quereres - Baião - Que nem jiló
TTITLE1=Vira mundo - Tudo de novo
TTITLE2=Doce
TTITLE3=Oração de Mãe Menininha
TTITLE4=Eu e água
TTITLE5=Agradecer e abraçar
TTITLE6=Vento de lá - Imbelezô
TTITLE7=Folia de Reis
TTITLE8=Mãe Maria
TTITLE9=Eu, a viola e Deus
TTITLE10=Criação
TTITLE11=Casa de caboclo
TTITLE12=Alguma voz
TTITLE13=Maracandé (Canto Tupi)
TTITLE14=Xavante
TTITLE15=Povos do Brasil
TTITLE16=Motriz
TTITLE17=Viver na fazenda
TTITLE18=Eu te desejo amor
TTITLE19=Non je ne regrette rien
TTITLE20=Silêncio - Carcará
TTITLE21=Santo Amaro ê, ê - Quixabeira - Minha senhora
TTITLE22=O que é, o que é?
EXTD=
EXTT0=
EXTT1=
EXTT2=
EXTT3=
EXTT4=
EXTT5=
EXTT6=
EXTT7=
EXTT8=
EXTT9=
EXTT10=
EXTT11=
EXTT12=
EXTT13=
EXTT14=
EXTT15=
EXTT16=
EXTT17=
EXTT18=
EXTT19=
EXTT20=
EXTT21=
EXTT22=
PLAYORDER=
